<svg width="20" height="20" viewBox="0 0 20 20" fill="none" xmlns="http://www.w3.org/2000/svg">
<g id="Left icon">
<path id="Vector" d="M10 16.9375H10.0001C11.8394 16.9354 13.6027 16.2038 14.9033 14.9033C16.2038 13.6027 16.9354 11.8394 16.9375 10.0001V10C16.9375 8.62789 16.5306 7.2866 15.7683 6.14573C15.006 5.00487 13.9225 4.11567 12.6549 3.59059C11.3872 3.0655 9.99231 2.92812 8.64656 3.1958C7.30082 3.46349 6.06468 4.12422 5.09445 5.09445C4.12422 6.06467 3.46349 7.30082 3.19581 8.64656C2.92812 9.9923 3.06551 11.3872 3.59059 12.6549C4.11567 13.9225 5.00487 15.006 6.14573 15.7683C7.2866 16.5306 8.6279 16.9375 10 16.9375ZM8.96441 9.9558L8.9202 10L8.96441 10.0442L11.648 12.727C11.648 12.727 11.648 12.727 11.648 12.727C11.7003 12.7793 11.7417 12.8413 11.77 12.9096C11.7983 12.9779 11.8129 13.0511 11.8129 13.125C11.8129 13.1989 11.7983 13.2721 11.77 13.3404C11.7417 13.4087 11.7003 13.4707 11.648 13.523C11.5957 13.5753 11.5337 13.6167 11.4654 13.645C11.3971 13.6733 11.3239 13.6878 11.25 13.6878C11.1761 13.6878 11.1029 13.6733 11.0346 13.645C10.9663 13.6167 10.9043 13.5753 10.852 13.523L7.72701 10.398L7.72699 10.398C7.67469 10.3457 7.6332 10.2837 7.60489 10.2154C7.57658 10.1471 7.56201 10.0739 7.56201 10C7.56201 9.92608 7.57658 9.85288 7.60489 9.7846C7.6332 9.71631 7.67469 9.65427 7.72699 9.60203L7.72701 9.60201L10.852 6.47701C10.9043 6.42474 10.9663 6.38328 11.0346 6.355C11.1029 6.32671 11.1761 6.31215 11.25 6.31215C11.3239 6.31215 11.3971 6.32671 11.4654 6.355C11.5337 6.38328 11.5957 6.42474 11.648 6.47701C11.7003 6.52927 11.7417 6.59132 11.77 6.65961C11.7983 6.7279 11.8129 6.80109 11.8129 6.875C11.8129 6.94891 11.7983 7.0221 11.77 7.09039C11.7417 7.15868 11.7003 7.22073 11.648 7.27299L8.96441 9.9558ZM5.52072 3.29628C6.84658 2.41036 8.40537 1.93751 9.99997 1.9375C12.1376 1.93977 14.187 2.78994 15.6985 4.30146C17.2101 5.813 18.0602 7.86243 18.0625 10.0001C18.0625 11.5947 17.5896 13.1534 16.7037 14.4793C15.8178 15.8052 14.5586 16.8385 13.0854 17.4488C11.6122 18.059 9.99106 18.2187 8.42709 17.9076C6.86312 17.5965 5.42652 16.8286 4.29896 15.701C3.17139 14.5735 2.40352 13.1369 2.09242 11.5729C1.78133 10.0089 1.94099 8.38784 2.55122 6.91461C3.16146 5.44139 4.19485 4.1822 5.52072 3.29628Z" fill="#565656" stroke="#565656" stroke-width="0.125"/>
</g>
</svg>
