<svg width="20" height="20" viewBox="0 0 20 20" fill="none" xmlns="http://www.w3.org/2000/svg">
<g id="Icon">
<path id="Vector" d="M17.5 10.0003C17.5 10.1661 17.4341 10.3251 17.3169 10.4423C17.1997 10.5595 17.0407 10.6253 16.875 10.6253H9.99998C9.83422 10.6253 9.67525 10.5595 9.55804 10.4423C9.44083 10.3251 9.37498 10.1661 9.37498 10.0003C9.37498 9.83459 9.44083 9.67562 9.55804 9.55841C9.67525 9.4412 9.83422 9.37535 9.99998 9.37535H16.875C17.0407 9.37535 17.1997 9.4412 17.3169 9.55841C17.4341 9.67562 17.5 9.83459 17.5 10.0003ZM9.99998 5.62535H16.875C17.0407 5.62535 17.1997 5.5595 17.3169 5.44229C17.4341 5.32508 17.5 5.16611 17.5 5.00035C17.5 4.83459 17.4341 4.67562 17.3169 4.55841C17.1997 4.4412 17.0407 4.37535 16.875 4.37535H9.99998C9.83422 4.37535 9.67525 4.4412 9.55804 4.55841C9.44083 4.67562 9.37498 4.83459 9.37498 5.00035C9.37498 5.16611 9.44083 5.32508 9.55804 5.44229C9.67525 5.5595 9.83422 5.62535 9.99998 5.62535ZM16.875 14.3753H9.99998C9.83422 14.3753 9.67525 14.4412 9.55804 14.5584C9.44083 14.6756 9.37498 14.8346 9.37498 15.0003C9.37498 15.1661 9.44083 15.3251 9.55804 15.4423C9.67525 15.5595 9.83422 15.6253 9.99998 15.6253H16.875C17.0407 15.6253 17.1997 15.5595 17.3169 15.4423C17.4341 15.3251 17.5 15.1661 17.5 15.0003C17.5 14.8346 17.4341 14.6756 17.3169 14.5584C17.1997 14.4412 17.0407 14.3753 16.875 14.3753ZM6.43279 3.30816L4.37498 5.36675L3.56717 4.55816C3.44989 4.44088 3.29083 4.375 3.12498 4.375C2.95913 4.375 2.80007 4.44088 2.68279 4.55816C2.56552 4.67544 2.49963 4.8345 2.49963 5.00035C2.49963 5.1662 2.56552 5.32526 2.68279 5.44254L3.93279 6.69254C3.99084 6.75065 4.05977 6.79674 4.13564 6.8282C4.21152 6.85965 4.29285 6.87584 4.37498 6.87584C4.45712 6.87584 4.53844 6.85965 4.61432 6.8282C4.69019 6.79674 4.75912 6.75065 4.81717 6.69254L7.31717 4.19253C7.43444 4.07526 7.50033 3.9162 7.50033 3.75035C7.50033 3.5845 7.43444 3.42544 7.31717 3.30816C7.19989 3.19088 7.04083 3.125 6.87498 3.125C6.70913 3.125 6.55007 3.19088 6.43279 3.30816ZM6.43279 8.30816L4.37498 10.3668L3.56717 9.55816C3.44989 9.44088 3.29083 9.375 3.12498 9.375C2.95913 9.375 2.80007 9.44088 2.68279 9.55816C2.56552 9.67544 2.49963 9.8345 2.49963 10.0003C2.49963 10.0825 2.51581 10.1638 2.54724 10.2397C2.57866 10.3155 2.62472 10.3845 2.68279 10.4425L3.93279 11.6925C3.99084 11.7506 4.05977 11.7967 4.13564 11.8282C4.21152 11.8597 4.29285 11.8758 4.37498 11.8758C4.45712 11.8758 4.53844 11.8597 4.61432 11.8282C4.69019 11.7967 4.75912 11.7506 4.81717 11.6925L7.31717 9.19254C7.43444 9.07526 7.50033 8.9162 7.50033 8.75035C7.50033 8.5845 7.43444 8.42544 7.31717 8.30816C7.19989 8.19088 7.04083 8.125 6.87498 8.125C6.70913 8.125 6.55007 8.19088 6.43279 8.30816ZM6.43279 13.3082L4.37498 15.3668L3.56717 14.5582C3.5091 14.5001 3.44016 14.454 3.36429 14.4226C3.28842 14.3912 3.2071 14.375 3.12498 14.375C3.04286 14.375 2.96154 14.3912 2.88567 14.4226C2.8098 14.454 2.74086 14.5001 2.68279 14.5582C2.62472 14.6162 2.57866 14.6852 2.54724 14.761C2.51581 14.8369 2.49963 14.9182 2.49963 15.0003C2.49963 15.0825 2.51581 15.1638 2.54724 15.2397C2.57866 15.3155 2.62472 15.3845 2.68279 15.4425L3.93279 16.6925C3.99084 16.7506 4.05977 16.7967 4.13564 16.8282C4.21152 16.8597 4.29285 16.8758 4.37498 16.8758C4.45712 16.8758 4.53844 16.8597 4.61432 16.8282C4.69019 16.7967 4.75912 16.7506 4.81717 16.6925L7.31717 14.1925C7.43444 14.0753 7.50033 13.9162 7.50033 13.7503C7.50033 13.5845 7.43444 13.4254 7.31717 13.3082C7.19989 13.1909 7.04083 13.125 6.87498 13.125C6.70913 13.125 6.55007 13.1909 6.43279 13.3082Z" fill="#222C30"/>
</g>
</svg>
