<svg width="24" height="24" viewBox="0 0 24 24" fill="none" xmlns="http://www.w3.org/2000/svg">
<g id="DotsThreeVertical">
<path id="Vector" d="M13.0625 12C13.0625 12.2101 13.0002 12.4156 12.8834 12.5903C12.7667 12.765 12.6007 12.9012 12.4066 12.9816C12.2125 13.062 11.9988 13.0831 11.7927 13.0421C11.5866 13.0011 11.3973 12.8999 11.2487 12.7513C11.1001 12.6027 10.9989 12.4134 10.9579 12.2073C10.9169 12.0012 10.938 11.7875 11.0184 11.5934C11.0988 11.3993 11.235 11.2333 11.4097 11.1166C11.5844 10.9998 11.7899 10.9375 12 10.9375C12.2818 10.9375 12.552 11.0494 12.7513 11.2487C12.9506 11.448 13.0625 11.7182 13.0625 12ZM12.5903 6.50844C12.4156 6.62519 12.2101 6.6875 12 6.6875C11.7182 6.6875 11.448 6.57556 11.2487 6.3763C11.0494 6.17704 10.9375 5.90679 10.9375 5.625C10.9375 5.41486 10.9998 5.20943 11.1166 5.03471C11.2333 4.85998 11.3993 4.7238 11.5934 4.64338C11.7875 4.56296 12.0012 4.54192 12.2073 4.58292C12.4134 4.62391 12.6027 4.72511 12.7513 4.8737C12.8999 5.02229 13.0011 5.21161 13.0421 5.41772C13.0831 5.62382 13.062 5.83746 12.9816 6.0316C12.9012 6.22575 12.765 6.39169 12.5903 6.50844ZM11.4097 17.4916C11.5844 17.3748 11.7899 17.3125 12 17.3125C12.2818 17.3125 12.552 17.4244 12.7513 17.6237C12.9506 17.823 13.0625 18.0932 13.0625 18.375C13.0625 18.5851 13.0002 18.7906 12.8834 18.9653C12.7667 19.14 12.6007 19.2762 12.4066 19.3566C12.2125 19.437 11.9988 19.4581 11.7927 19.4171C11.5866 19.3761 11.3973 19.2749 11.2487 19.1263C11.1001 18.9777 10.9989 18.7884 10.9579 18.5823C10.9169 18.3762 10.938 18.1625 11.0184 17.9684C11.0988 17.7743 11.235 17.6083 11.4097 17.4916Z" fill="#222C30" stroke="#222C30" stroke-width="0.125"/>
</g>
</svg>
