<svg width="180" height="60" viewBox="0 0 180 60" fill="none" xmlns="http://www.w3.org/2000/svg">
<g id="Zero-Logotype-Brandmark-White-Green 3">
<path id="Vector" d="M128.871 36.5146H137.906V38.6575H131.28V40.8989H137.906V43.0418H131.28V45.3561H137.906V47.4989H128.871V36.5146Z" fill="#222C30"/>
<path id="Vector_2" d="M21.3301 47.5716H56.4729V12.4287H21.3301V47.5716ZM49.4529 40.5344H28.3629V38.1859L37.1786 26.473H28.3629V19.453H49.4529V21.8144L40.6715 33.5144H49.4529V40.5344Z" fill="#222C30"/>
<path id="Vector_3" d="M40.6672 33.5146H49.453L65.2801 12.416H56.4901L40.6672 33.5146Z" fill="#0BA347"/>
<path id="Vector_4" d="M37.1572 26.4854H28.3629L12.54 47.5839H21.33L37.1572 26.4854Z" fill="#0BA347"/>
<path id="Vector_5" d="M68.3314 33.5144C66.9943 33.5144 65.76 32.7601 65.76 31.2259C65.7788 30.8642 65.8709 30.5102 66.0308 30.1853C66.1906 29.8603 66.4149 29.5714 66.69 29.3358L79.4872 16.7573H66.0429V12.4287H84.3643C85.65 12.4287 86.91 13.213 86.91 14.7173C86.895 15.0829 86.8051 15.4416 86.6459 15.7712C86.4866 16.1007 86.2615 16.394 85.9843 16.633L73.2 29.2244H87V33.5101L68.3314 33.5144Z" fill="#222C30"/>
<path id="Vector_6" d="M91.0715 12.4287H110.233V16.963H91.0715V12.4287ZM91.0715 20.7044H110.233V25.2387H91.0715V20.7044ZM91.0715 28.9801H110.233V33.5144H91.0715V28.9801Z" fill="#222C30"/>
<path id="Vector_7" d="M133.179 33.5144L128.036 27.7759H121.496V23.9187H129.673C131.876 23.9187 133.101 22.633 133.101 20.3787C133.101 18.1244 131.816 16.9501 129.673 16.9501H118.856V33.5144H114.364V12.4287H129.673C134.601 12.4287 137.529 15.4716 137.529 20.2544C137.529 23.683 135.904 26.1044 133.264 27.1501L139.581 33.5016L133.179 33.5144Z" fill="#222C30"/>
<path id="Vector_8" d="M151.749 33.5143C145.749 33.5143 141.339 28.8771 141.339 22.7614C141.339 16.5557 145.744 12.4414 151.749 12.4414H156.96C163.166 12.4414 167.46 16.6414 167.46 22.7614C167.46 28.8814 163.054 33.5143 156.96 33.5143H151.749ZM156.96 28.9928C157.718 29.0238 158.475 28.9049 159.188 28.6427C159.9 28.3806 160.554 27.9805 161.111 27.4653C161.668 26.9501 162.119 26.33 162.436 25.6405C162.753 24.9509 162.931 24.2056 162.96 23.4471C162.96 23.2885 162.96 23.1343 162.96 22.9757C162.96 19.4657 160.496 16.9457 156.981 16.9457H151.749C148.354 16.9457 145.864 19.4657 145.864 22.9757C145.864 26.4857 148.324 28.9757 151.749 28.9757L156.96 28.9928Z" fill="#222C30"/>
<path id="Vector_9" d="M65.9314 36.5439H68.5714L71.4728 41.2111L74.3743 36.5439H76.9885V47.5711H74.5714V40.3754L71.4685 45.0897H71.4043L68.3271 40.4225V47.5711H65.9485L65.9314 36.5439Z" fill="#222C30"/>
<path id="Vector_10" d="M86.7813 36.4629H89.0228L93.7371 47.58H91.1956L90.1885 45.1072H85.5385L84.5271 47.5715H82.0542L86.7813 36.4629ZM89.3528 42.96L87.8571 39.3815L86.3913 42.96H89.3528Z" fill="#222C30"/>
<path id="Vector_11" d="M98.5715 36.5439H103.616C105.022 36.5439 106.11 36.9382 106.834 37.6625C107.153 37.9988 107.4 38.3954 107.563 38.829C107.726 39.2625 107.8 39.7241 107.782 40.1868V40.2168C107.818 40.9687 107.607 41.7119 107.179 42.3315C106.751 42.9512 106.132 43.4129 105.416 43.6454L108.112 47.5882H105.257L102.892 44.0568H100.984V47.5711H98.5715V36.5439ZM103.462 41.9054C104.64 41.9054 105.322 41.2754 105.322 40.3411V40.3111C105.322 39.2697 104.593 38.7339 103.414 38.7339H101.002V41.9054H103.462Z" fill="#222C30"/>
<path id="Vector_12" d="M114.364 36.5439H116.794V41.3697L121.286 36.5439H124.217L119.713 41.2239L124.427 47.5797H121.509L118.08 42.8654L116.794 44.1897V47.5711H114.364V36.5439Z" fill="#222C30"/>
<path id="Vector_13" d="M145.92 38.7811H142.56V36.5439H151.714V38.7811H148.354V47.5711H145.929L145.92 38.7811Z" fill="#222C30"/>
<path id="Vector_14" d="M162.669 47.5714H156.45V45.4285H162.669C162.821 45.433 162.973 45.4056 163.114 45.3481C163.256 45.2905 163.383 45.2042 163.489 45.0945C163.596 44.9848 163.678 44.8541 163.73 44.7109C163.783 44.5677 163.805 44.4151 163.796 44.2628C163.808 44.1102 163.788 43.9568 163.736 43.8127C163.684 43.6687 163.602 43.5375 163.495 43.4278C163.388 43.3182 163.259 43.2327 163.117 43.1771C162.974 43.1215 162.821 43.0972 162.669 43.1056H159.043C158.612 43.1133 158.185 43.0337 157.786 42.8714C157.387 42.7091 157.025 42.4677 156.722 42.1616C156.419 41.8555 156.182 41.4912 156.024 41.0907C155.866 40.6902 155.791 40.2618 155.803 39.8314C155.796 39.4018 155.875 38.9752 156.035 38.5766C156.195 38.178 156.433 37.8153 156.736 37.51C157.038 37.2046 157.398 36.9626 157.795 36.7983C158.192 36.6339 158.617 36.5504 159.047 36.5528H165.189V38.6956H159.047C158.901 38.6912 158.755 38.7173 158.619 38.7724C158.483 38.8275 158.36 38.9104 158.258 39.0156C158.156 39.1209 158.077 39.2463 158.026 39.3838C157.975 39.5213 157.954 39.6679 157.963 39.8142C157.95 39.9608 157.969 40.1083 158.019 40.2468C158.068 40.3853 158.147 40.5117 158.249 40.6173C158.351 40.7229 158.475 40.8053 158.612 40.859C158.749 40.9127 158.896 40.9364 159.043 40.9285H162.669C163.105 40.9208 163.538 41.0016 163.942 41.166C164.347 41.3303 164.714 41.5749 165.021 41.8849C165.328 42.1948 165.569 42.5638 165.73 42.9696C165.89 43.3753 165.967 43.8094 165.956 44.2456C165.963 44.6812 165.883 45.1138 165.721 45.5181C165.559 45.9224 165.318 46.2903 165.012 46.6001C164.706 46.9099 164.341 47.1554 163.938 47.3222C163.536 47.489 163.104 47.5737 162.669 47.5714Z" fill="#222C30"/>
</g>
</svg>
