<svg width="20" height="20" viewBox="0 0 20 20" fill="none" xmlns="http://www.w3.org/2000/svg">
<g id="Left icon">
<path id="Vector" d="M16.25 16.3125H16.3125V16.25V3.75V3.6875H16.25H11.875C11.7258 3.6875 11.5827 3.62824 11.4773 3.52275C11.3718 3.41726 11.3125 3.27418 11.3125 3.125C11.3125 2.97582 11.3718 2.83274 11.4773 2.72725C11.5827 2.62176 11.7258 2.5625 11.875 2.5625H16.25C16.5649 2.5625 16.867 2.68761 17.0897 2.91031C17.3124 3.13301 17.4375 3.43505 17.4375 3.75V16.25C17.4375 16.5649 17.3124 16.867 17.0897 17.0897C16.867 17.3124 16.5649 17.4375 16.25 17.4375H11.875C11.7258 17.4375 11.5827 17.3782 11.4773 17.2727C11.3718 17.1673 11.3125 17.0242 11.3125 16.875C11.3125 16.7258 11.3718 16.5827 11.4773 16.4773C11.5827 16.3718 11.7258 16.3125 11.875 16.3125H16.25ZM2.72701 10.398L2.72698 10.398C2.67468 10.3457 2.63319 10.2837 2.60488 10.2154C2.57658 10.1471 2.56201 10.0739 2.56201 10C2.56201 9.92608 2.57658 9.85288 2.60488 9.7846C2.63319 9.71631 2.67468 9.65427 2.72698 9.60203L2.72701 9.60201L5.85201 6.47701C5.95756 6.37145 6.10072 6.31215 6.25 6.31215C6.39928 6.31215 6.54244 6.37145 6.64799 6.47701C6.75355 6.58256 6.81285 6.72572 6.81285 6.875C6.81285 7.02427 6.75355 7.16743 6.648 7.27299C6.648 7.27299 6.64799 7.27299 6.64799 7.27299L4.58941 9.3308L4.48266 9.4375H4.63359L11.875 9.4375C12.0242 9.4375 12.1673 9.49676 12.2727 9.60225C12.3782 9.70774 12.4375 9.85082 12.4375 10C12.4375 10.1492 12.3782 10.2923 12.2727 10.3977C12.1673 10.5032 12.0242 10.5625 11.875 10.5625L4.63359 10.5625H4.48266L4.58941 10.6692L6.64799 12.727C6.75355 12.8326 6.81285 12.9757 6.81285 13.125C6.81285 13.2743 6.75355 13.4174 6.64799 13.523C6.54244 13.6285 6.39928 13.6878 6.25 13.6878C6.10072 13.6878 5.95756 13.6285 5.85201 13.523L2.72701 10.398Z" fill="#343330" stroke="#565656" stroke-width="0.125"/>
</g>
</svg>
