<svg width="360" height="233" viewBox="0 0 360 233" fill="none" xmlns="http://www.w3.org/2000/svg">
<g filter="url(#filter0_f_14780_82885)">
<ellipse cx="180" cy="141.269" rx="169.619" ry="52.5894" fill="url(#paint0_linear_14780_82885)"/>
</g>
<path d="M266.219 9.62803L42.0104 81.8004C31.496 85.185 25.7161 96.4523 29.1007 106.967L50.7527 174.23C70.1178 184.301 113.768 192.67 146.241 191.705C147.516 191.667 148.775 191.488 150.016 191.194L310.744 153.065C322.093 150.372 328.739 138.579 325.165 127.476L291.386 22.5377C288.001 12.0233 276.734 6.24348 266.219 9.62803Z" fill="url(#paint1_linear_14780_82885)"/>
<g filter="url(#filter1_di_14780_82885)">
<path d="M55.4571 63.8916L287.441 22.9867C298.319 21.0686 308.692 28.332 310.61 39.2099L328.536 140.872C330.454 151.75 323.19 162.123 312.312 164.041L165.556 189.919C125.339 198.244 56.1091 179.76 54.8401 176.178C54.8283 176.145 54.8224 176.113 54.8224 176.082L39.2298 87.0375C37.3262 76.1665 44.5883 65.8081 55.4571 63.8916Z" fill="url(#paint2_radial_14780_82885)" shape-rendering="crispEdges"/>
<path d="M55.4571 63.8916L287.441 22.9867C298.319 21.0686 308.692 28.332 310.61 39.2099L328.536 140.872C330.454 151.75 323.19 162.123 312.312 164.041L165.556 189.919C125.339 198.244 56.1091 179.76 54.8401 176.178C54.8283 176.145 54.8224 176.113 54.8224 176.082L39.2298 87.0375C37.3262 76.1665 44.5883 65.8081 55.4571 63.8916Z" fill="url(#paint3_radial_14780_82885)" fill-opacity="0.2" shape-rendering="crispEdges"/>
<path d="M165.383 188.934L165.368 188.936L165.354 188.939C145.441 193.061 118.237 190.553 95.7689 186.529C84.5527 184.521 74.5572 182.142 67.2967 180.046C63.6637 178.997 60.7324 178.024 58.6816 177.209C57.6528 176.8 56.8714 176.441 56.3412 176.143C56.0747 175.992 55.8978 175.872 55.7916 175.785C55.7892 175.783 55.7868 175.781 55.7845 175.779L40.2148 86.865C38.4064 76.5375 45.3054 66.6971 55.6307 64.8764L287.614 23.9715C297.948 22.1493 307.803 29.0495 309.625 39.3835L327.551 141.046C329.373 151.38 322.473 161.234 312.139 163.057L165.383 188.934ZM55.715 175.714C55.7151 175.714 55.716 175.715 55.7177 175.717C55.7158 175.715 55.7149 175.714 55.715 175.714Z" stroke="white" stroke-width="2" shape-rendering="crispEdges"/>
</g>
<path d="M354.804 133.862C354.804 167.816 276.542 195.34 180 195.34C83.4583 195.34 5.1958 167.816 5.1958 133.862" stroke="url(#paint4_linear_14780_82885)"/>
<g clip-path="url(#clip0_14780_82885)">
<path d="M236.672 114.561L248.535 112.469L249.031 115.283L240.331 116.817L240.85 119.76L249.55 118.226L250.046 121.039L241.346 122.574L241.882 125.612L250.582 124.078L251.078 126.892L239.216 128.984L236.672 114.561Z" fill="#222C30"/>
<path d="M98.0222 153.978L144.167 145.842L136.031 99.6964L89.8855 107.833L98.0222 153.978ZM133.32 138.227L105.628 143.11L105.084 140.026L113.948 122.605L102.372 124.646L100.747 115.428L128.439 110.545L128.986 113.646L120.164 131.042L131.695 129.009L133.32 138.227Z" fill="#222C30"/>
<path d="M120.159 131.043L131.695 129.009L147.592 97.6402L136.05 99.6754L120.159 131.043Z" fill="#0BA347"/>
<path d="M113.922 122.627L102.375 124.663L86.4831 156.03L98.0251 153.995L113.922 122.627Z" fill="#0BA347"/>
<path d="M156.484 124.638C154.728 124.947 152.933 124.243 152.578 122.228C152.519 121.749 152.558 121.263 152.692 120.799C152.827 120.335 153.055 119.904 153.361 119.531L167.253 100.051L149.599 103.164L148.597 97.4804L172.654 93.2384C174.343 92.9407 176.179 93.6788 176.527 95.6541C176.592 96.1377 176.557 96.6295 176.424 97.0991C176.291 97.5686 176.064 98.0059 175.755 98.3839L161.884 117.877L180.004 114.682L180.996 120.31L156.484 124.638Z" fill="#222C30"/>
<path d="M181.461 91.6855L206.622 87.2491L207.672 93.203L182.511 97.6394L181.461 91.6855ZM183.378 102.552L208.538 98.1157L209.588 104.07L184.427 108.506L183.378 102.552ZM185.294 113.419L210.454 108.982L211.504 114.936L186.343 119.373L185.294 113.419Z" fill="#222C30"/>
<path d="M241.633 109.624L233.552 103.28L224.964 104.794L224.071 99.7291L234.808 97.8358C237.701 97.3258 239.013 95.3538 238.491 92.3937C237.969 89.4337 236.009 88.1894 233.195 88.6855L218.991 91.19L222.826 112.94L216.929 113.98L212.047 86.293L232.148 82.7486C238.62 81.6074 243.168 84.9252 244.275 91.2055C245.069 95.7075 243.497 99.2631 240.272 101.247L250.038 108.125L241.633 109.624Z" fill="#222C30"/>
<path d="M266.017 105.325C258.139 106.714 251.274 101.646 249.858 93.6154C248.422 85.4668 253.254 79.0444 261.138 77.6542L267.981 76.4476C276.13 75.0108 282.741 79.5315 284.158 87.5675C285.575 95.6035 280.862 102.707 272.86 104.118L266.017 105.325ZM271.813 98.1809C272.816 98.046 273.783 97.7145 274.657 97.2054C275.532 96.6963 276.298 96.0196 276.91 95.214C277.523 94.4085 277.97 93.49 278.227 92.5111C278.484 91.5323 278.546 90.5123 278.408 89.5098C278.371 89.3016 278.335 89.099 278.299 88.8908C277.486 84.2819 273.667 81.5435 269.052 82.3571L262.181 83.5687C257.724 84.3546 255.038 88.24 255.851 92.8489C256.663 97.4578 260.47 100.158 264.966 99.365L271.813 98.1809Z" fill="#222C30"/>
<path d="M154.034 129.173L157.501 128.562L162.391 134.018L165.12 127.218L168.553 126.613L171.106 141.092L167.932 141.652L166.266 132.203L163.283 139.112L163.199 139.127L158.078 133.711L159.733 143.098L156.61 143.648L154.034 129.173Z" fill="#222C30"/>
<path d="M181.393 124.239L184.336 123.72L193.1 137.226L189.763 137.814L187.868 134.8L181.762 135.877L181.005 139.347L177.758 139.919L181.393 124.239ZM186.274 132.174L183.481 127.822L182.385 132.86L186.274 132.174Z" fill="#222C30"/>
<path d="M196.893 121.615L203.517 120.447C205.362 120.122 206.883 120.388 208.002 121.171C208.498 121.539 208.915 122.002 209.229 122.534C209.543 123.065 209.747 123.654 209.83 124.266L209.837 124.306C210.059 125.284 209.953 126.309 209.535 127.222C209.117 128.135 208.411 128.884 207.524 129.355L211.977 133.908L208.229 134.569L204.305 130.48L201.801 130.922L202.614 135.536L199.446 136.095L196.893 121.615ZM204.555 127.523C206.103 127.25 206.852 126.265 206.635 125.038L206.629 124.999C206.387 123.631 205.307 123.097 203.759 123.37L200.591 123.928L201.325 128.093L204.555 127.523Z" fill="#222C30"/>
<path d="M217.63 117.959L220.821 117.396L221.938 123.733L226.719 116.356L230.568 115.678L225.737 122.866L233.399 130.12L229.566 130.796L223.973 125.399L222.591 127.436L223.374 131.876L220.183 132.438L217.63 117.959Z" fill="#222C30"/>
<path d="M259.583 113.59L255.171 114.368L254.653 111.431L266.674 109.311L267.192 112.249L262.78 113.027L264.815 124.569L261.63 125.13L259.583 113.59Z" fill="#222C30"/>
<path d="M283.611 121.254L275.445 122.694L274.949 119.88L283.114 118.441C283.316 118.411 283.509 118.34 283.681 118.232C283.853 118.124 284.001 117.981 284.115 117.812C284.229 117.643 284.306 117.453 284.342 117.253C284.378 117.052 284.372 116.847 284.325 116.649C284.306 116.446 284.243 116.249 284.142 116.072C284.041 115.895 283.902 115.741 283.737 115.622C283.571 115.503 283.382 115.421 283.182 115.381C282.982 115.341 282.775 115.344 282.577 115.391L277.816 116.23C277.252 116.34 276.672 116.334 276.111 116.213C275.55 116.093 275.019 115.859 274.55 115.528C274.082 115.196 273.685 114.773 273.385 114.283C273.085 113.794 272.887 113.249 272.803 112.681C272.695 112.118 272.7 111.54 272.818 110.979C272.936 110.419 273.165 109.888 273.491 109.417C273.817 108.946 274.234 108.545 274.717 108.237C275.2 107.929 275.74 107.721 276.304 107.625L284.368 106.203L284.864 109.016L276.8 110.438C276.607 110.466 276.421 110.535 276.256 110.638C276.09 110.742 275.948 110.879 275.838 111.041C275.729 111.203 275.654 111.386 275.619 111.578C275.584 111.771 275.59 111.968 275.636 112.158C275.653 112.353 275.712 112.543 275.809 112.713C275.906 112.884 276.039 113.031 276.197 113.146C276.356 113.261 276.538 113.341 276.73 113.38C276.922 113.418 277.121 113.416 277.312 113.371L282.072 112.532C282.644 112.421 283.231 112.426 283.8 112.549C284.369 112.671 284.907 112.907 285.383 113.243C285.858 113.579 286.26 114.008 286.565 114.503C286.87 114.999 287.071 115.551 287.157 116.126C287.267 116.697 287.263 117.283 287.144 117.851C287.025 118.42 286.793 118.959 286.463 119.436C286.132 119.914 285.71 120.321 285.22 120.633C284.73 120.945 284.183 121.157 283.611 121.254Z" fill="#222C30"/>
</g>
<defs>
<filter id="filter0_f_14780_82885" x="0.380615" y="78.6797" width="359.239" height="125.179" filterUnits="userSpaceOnUse" color-interpolation-filters="sRGB">
<feFlood flood-opacity="0" result="BackgroundImageFix"/>
<feBlend mode="normal" in="SourceGraphic" in2="BackgroundImageFix" result="shape"/>
<feGaussianBlur stdDeviation="5" result="effect1_foregroundBlur_14780_82885"/>
</filter>
<filter id="filter1_di_14780_82885" x="18.9268" y="0.679688" width="329.916" height="209.372" filterUnits="userSpaceOnUse" color-interpolation-filters="sRGB">
<feFlood flood-opacity="0" result="BackgroundImageFix"/>
<feColorMatrix in="SourceAlpha" type="matrix" values="0 0 0 0 0 0 0 0 0 0 0 0 0 0 0 0 0 0 127 0" result="hardAlpha"/>
<feOffset dy="-2"/>
<feGaussianBlur stdDeviation="10"/>
<feComposite in2="hardAlpha" operator="out"/>
<feColorMatrix type="matrix" values="0 0 0 0 0.0986835 0 0 0 0 0.955 0 0 0 0 0.287073 0 0 0 0.1 0"/>
<feBlend mode="normal" in2="BackgroundImageFix" result="effect1_dropShadow_14780_82885"/>
<feBlend mode="normal" in="SourceGraphic" in2="effect1_dropShadow_14780_82885" result="shape"/>
<feColorMatrix in="SourceAlpha" type="matrix" values="0 0 0 0 0 0 0 0 0 0 0 0 0 0 0 0 0 0 127 0" result="hardAlpha"/>
<feOffset dy="4"/>
<feGaussianBlur stdDeviation="5"/>
<feComposite in2="hardAlpha" operator="arithmetic" k2="-1" k3="1"/>
<feColorMatrix type="matrix" values="0 0 0 0 0.0403918 0 0 0 0 0.655 0 0 0 0 0.249359 0 0 0 0.2 0"/>
<feBlend mode="normal" in2="shape" result="effect2_innerShadow_14780_82885"/>
</filter>
<linearGradient id="paint0_linear_14780_82885" x1="180" y1="152" x2="182.474" y2="201.501" gradientUnits="userSpaceOnUse">
<stop stop-color="white" stop-opacity="0"/>
<stop offset="1" stop-color="#A1EAB1"/>
</linearGradient>
<linearGradient id="paint1_linear_14780_82885" x1="149" y1="46.5" x2="190" y2="124.5" gradientUnits="userSpaceOnUse">
<stop stop-color="#00C62E"/>
<stop offset="1" stop-color="white" stop-opacity="0"/>
</linearGradient>
<radialGradient id="paint2_radial_14780_82885" cx="0" cy="0" r="1" gradientUnits="userSpaceOnUse" gradientTransform="translate(64 27) rotate(74.403) scale(96.7214 118.422)">
<stop stop-color="white"/>
<stop offset="0.522114" stop-color="white"/>
<stop offset="1" stop-color="white" stop-opacity="0.69"/>
</radialGradient>
<radialGradient id="paint3_radial_14780_82885" cx="0" cy="0" r="1" gradientUnits="userSpaceOnUse" gradientTransform="translate(236.293 113.864) rotate(34.1285) scale(80.5317 68.7396)">
<stop stop-color="white" stop-opacity="0.36"/>
<stop offset="0.532291" stop-color="white" stop-opacity="0.46"/>
<stop offset="1" stop-color="white" stop-opacity="0"/>
</radialGradient>
<linearGradient id="paint4_linear_14780_82885" x1="197.974" y1="195.34" x2="196.396" y2="145.503" gradientUnits="userSpaceOnUse">
<stop stop-color="#00C62E" stop-opacity="0.31"/>
<stop offset="1" stop-color="white" stop-opacity="0"/>
</linearGradient>
<clipPath id="clip0_14780_82885">
<rect width="240" height="80" fill="white" transform="translate(59 96.4521) rotate(-10)"/>
</clipPath>
</defs>
</svg>
